<?xml version="1.0" encoding="UTF-8" standalone="no"?>
<!-- Created with Inkscape (http://www.inkscape.org/) -->

<svg
   width="89.527321mm"
   height="83.080116mm"
   viewBox="0 0 89.527321 83.080116"
   version="1.1"
   id="svg5"
   xml:space="preserve"
   inkscape:version="1.2 (dc2aedaf03, 2022-05-15)"
   sodipodi:docname="d3fn.svg"
   xmlns:inkscape="http://www.inkscape.org/namespaces/inkscape"
   xmlns:sodipodi="http://sodipodi.sourceforge.net/DTD/sodipodi-0.dtd"
   xmlns="http://www.w3.org/2000/svg"
   xmlns:svg="http://www.w3.org/2000/svg"><sodipodi:namedview
     id="namedview7"
     pagecolor="#ffffff"
     bordercolor="#666666"
     borderopacity="1.0"
     inkscape:showpageshadow="2"
     inkscape:pageopacity="0.0"
     inkscape:pagecheckerboard="0"
     inkscape:deskcolor="#d1d1d1"
     inkscape:document-units="mm"
     showgrid="false"
     inkscape:zoom="0.914906"
     inkscape:cx="-167.7768"
     inkscape:cy="137.17256"
     inkscape:window-width="2556"
     inkscape:window-height="1400"
     inkscape:window-x="2560"
     inkscape:window-y="18"
     inkscape:window-maximized="1"
     inkscape:current-layer="layer1" /><defs
     id="defs2" /><g
     inkscape:label="Layer 1"
     inkscape:groupmode="layer"
     id="layer1"
     transform="translate(-100.35772,-112.27245)"><path
       style="fill:#000000;stroke-width:0.264583"
       d="m 100.35772,186.2235 v -9.12812 l 4.56407,-0.003 c 8.30762,-0.006 13.29889,-1.72829 18.2225,-6.28669 9.82754,-9.09857 9.82754,-24.88776 0,-33.98633 -4.92361,-4.55841 -9.91488,-6.28038 -18.2225,-6.28671 l -4.56407,-0.003 v -9.12814 -9.12812 h 4.24376 c 8.71575,0 14.52085,1.18074 20.78727,4.22806 11.90258,5.78815 20.31759,16.89309 22.76005,30.03549 0.68307,3.67546 0.68307,10.87663 0,14.55209 -2.44054,13.13205 -10.86684,24.25188 -22.76005,30.03548 -6.27998,3.05391 -12.10008,4.22806 -20.95802,4.22806 h -4.07301 z m 35.34784,7.47448 c 4.77879,-3.37335 10.60926,-9.68535 13.60618,-14.72991 l 1.11254,-1.87269 h 6.57451 c 7.69795,0 8.64831,-0.20229 10.5274,-2.24088 1.4177,-1.53801 1.95088,-2.83636 1.9707,-4.79879 0.0291,-2.88001 -1.55963,-5.29213 -4.31625,-6.55335 -1.00745,-0.46094 -1.85347,-0.56047 -5.49924,-0.64699 -3.84746,-0.0913 -4.29494,-0.14888 -4.1808,-0.5379 0.88867,-3.0287 0.88867,-13.98215 0,-17.01086 -0.11414,-0.38901 0.33334,-0.44658 4.1808,-0.53789 3.64577,-0.0865 4.49179,-0.18606 5.49924,-0.64699 2.75028,-1.25832 4.33922,-3.66644 4.32409,-6.55335 -0.0104,-1.9828 -0.51026,-3.20591 -1.94735,-4.76496 -1.91449,-2.07698 -2.83231,-2.27471 -10.55859,-2.27471 h -6.57451 l -1.11254,-1.8727 c -2.99692,-5.04455 -8.82739,-11.35657 -13.60618,-14.72992 l -2.34261,-1.65364 h 15.05589 c 8.92082,0 15.95766,0.11307 17.26888,0.27748 8.38152,1.05096 15.79895,6.3905 19.55374,14.07608 1.89444,3.87766 2.26416,5.67915 2.26709,11.04645 0.002,4.28759 -0.0504,4.80227 -0.71343,6.95545 -0.82933,2.69344 -2.18147,5.49789 -3.69453,7.66278 l -1.06329,1.52135 1.06329,1.52136 c 1.51306,2.16489 2.8652,4.96933 3.69453,7.66278 0.66298,2.15318 0.71577,2.66786 0.71343,6.95545 -0.003,5.43437 -0.38364,7.23799 -2.3741,11.24832 -3.6747,7.40369 -10.71045,12.53581 -18.87238,13.76618 -1.986,0.29937 -5.83206,0.38272 -17.71788,0.38394 l -15.18124,0.002 2.34261,-1.65365 z"
       id="path309" /><text
       xml:space="preserve"
       style="font-style:normal;font-variant:normal;font-weight:normal;font-stretch:normal;font-size:55.0221px;line-height:1.25;font-family:'Input Mono';-inkscape-font-specification:'Input Mono';fill:#000000;fill-opacity:1;stroke:none;stroke-width:1.37555"
       x="122.17033"
       y="194.66479"
       id="text307"><tspan
         sodipodi:role="line"
         id="tspan305"
         style="font-style:normal;font-variant:normal;font-weight:800;font-stretch:normal;font-size:55.0221px;font-family:'Input Mono';-inkscape-font-specification:'Input Mono, Ultra-Bold';font-variant-ligatures:normal;font-variant-caps:normal;font-variant-numeric:normal;font-variant-east-asian:normal;fill:#ffffff;stroke:#000000;stroke-width:1.37555"
         x="122.17033"
         y="194.66479">fn</tspan></text></g></svg>
