<?xml version="1.0" encoding="UTF-8" standalone="no"?>
<!-- Created with Inkscape (http://www.inkscape.org/) -->

<svg
   width="83.315155mm"
   height="89.933617mm"
   viewBox="0 0 83.315155 89.933617"
   version="1.1"
   id="svg85"
   xml:space="preserve"
   inkscape:version="1.2 (dc2aedaf03, 2022-05-15)"
   sodipodi:docname="exa_bw.svg"
   xmlns:inkscape="http://www.inkscape.org/namespaces/inkscape"
   xmlns:sodipodi="http://sodipodi.sourceforge.net/DTD/sodipodi-0.dtd"
   xmlns="http://www.w3.org/2000/svg"
   xmlns:svg="http://www.w3.org/2000/svg"><sodipodi:namedview
     id="namedview87"
     pagecolor="#ffffff"
     bordercolor="#666666"
     borderopacity="1.0"
     inkscape:showpageshadow="2"
     inkscape:pageopacity="0.0"
     inkscape:pagecheckerboard="0"
     inkscape:deskcolor="#d1d1d1"
     inkscape:document-units="mm"
     showgrid="false"
     inkscape:zoom="0.914906"
     inkscape:cx="221.33421"
     inkscape:cy="248.65942"
     inkscape:window-width="2556"
     inkscape:window-height="1400"
     inkscape:window-x="2560"
     inkscape:window-y="18"
     inkscape:window-maximized="1"
     inkscape:current-layer="layer1" /><defs
     id="defs82" /><g
     inkscape:label="Layer 1"
     inkscape:groupmode="layer"
     id="layer1"
     transform="translate(-45.870776,-82.935831)"><path
       style="fill:#000000;stroke-width:0.352778"
       d="m 87.23733,172.63426 c -0.366321,-0.36631 -0.276348,-1.59578 0.09977,-1.36333 0.304433,0.18815 0.420666,-0.22291 0.844782,-2.98759 0.0823,-0.53649 0.152591,-0.32921 0.179451,0.52917 0.05482,1.75177 -0.309393,4.05694 -0.640993,4.05694 -0.136303,0 -0.353656,-0.10583 -0.483006,-0.23519 z m -0.532264,-4.35092 c 0,-0.48507 0.08007,-0.68351 0.177938,-0.44097 0.09786,0.24253 0.09786,0.63941 0,0.88194 -0.09786,0.24254 -0.177938,0.0441 -0.177938,-0.44097 z m 1.755066,-3.27426 c -0.04983,-2.16792 -0.61552,-2.86298 -1.638868,-2.01368 -0.440542,0.36562 -0.524676,0.29428 -0.524676,-0.44485 0,-0.48417 -0.348587,-1.65454 -0.77464,-2.60084 -0.635074,-1.41055 -0.814077,-2.64214 -0.993538,-6.83581 -0.128888,-3.0119 -0.08272,-5.29661 0.112278,-5.55625 0.221911,-0.29548 0.182496,-0.44098 -0.119468,-0.44098 -0.319765,0 -0.28376,-0.18441 0.123966,-0.63494 0.537587,-0.59403 0.506734,-0.67504 -0.478794,-1.25721 -1.440934,-0.85118 -2.455915,-2.9707 -2.455915,-5.12853 0,-0.96642 0.15875,-1.85523 0.352778,-1.97515 0.194028,-0.11992 0.352778,-0.55262 0.352778,-0.96156 0,-0.40894 0.089,-0.65454 0.19777,-0.54576 0.108772,0.10877 0.56562,-0.17009 1.015217,-0.61968 1.292641,-1.29264 3.452435,-1.79658 5.432154,-1.26747 0.904825,0.24183 1.972867,0.74733 2.373428,1.12333 1.031565,0.96832 2.975875,0.8277 2.975875,-0.21523 0,-0.70317 -0.473061,-0.86639 -1.617726,-0.55818 -0.729922,0.19655 -1.468794,0.0825 -2.547532,-0.39318 -1.827576,-0.80592 -4.451713,-0.75623 -5.71252,0.10815 -0.83573,0.57296 -1.020589,0.56951 -3.527777,-0.0657 -4.938213,-1.25104 -8.097347,-3.29646 -9.733043,-6.30177 -0.865797,-1.59075 -1.027103,-1.71529 -1.975962,-1.52551 -0.568261,0.11365 -1.399342,0.0107 -1.846845,-0.22881 -0.698028,-0.37358 -1.335896,-0.25512 -4.48902,0.83362 -2.021458,0.698 -4.168838,1.26908 -4.771955,1.26908 -1.20677,0 -1.524073,0.46441 -1.526161,2.23371 -7.41e-4,0.61472 -0.338252,1.6733 -0.75006,2.3524 -1.402307,2.3125 -4.263458,5.66561 -5.285208,6.19398 -0.560433,0.28981 -1.018969,0.76656 -1.018969,1.05944 0,0.29289 -0.223588,0.88413 -0.496862,1.31386 -0.273275,0.42974 -0.693377,2.25476 -0.933559,4.05562 -0.240184,1.80085 -0.560791,3.35097 -0.712461,3.4447 -0.472088,0.29177 -0.760116,-1.25769 -0.330107,-1.77582 0.224139,-0.27007 0.497642,-1.68259 0.607784,-3.13893 0.198675,-2.62693 0.192985,-2.64972 -0.718514,-2.8785 -1.18345,-0.29702 -1.475457,-1.26118 -0.785846,-2.59474 0.301039,-0.58215 0.547343,-1.86518 0.547343,-2.85119 0,-2.97832 1.744764,-5.92741 4.298344,-7.26531 0.889305,-0.46593 1.045014,-0.42129 2.557639,0.73332 0.885876,0.67621 1.610684,1.09335 1.610684,0.927 0,-0.16636 -0.635,-0.74253 -1.411111,-1.28037 -0.776111,-0.53785 -1.411111,-1.11809 -1.411111,-1.28942 0,-0.17134 -0.436563,-0.2028 -0.970139,-0.0699 -0.874588,0.21783 -0.922452,0.18374 -0.485971,-0.34606 0.266292,-0.32322 0.755771,-0.58768 1.087731,-0.58768 0.964776,0 1.083846,-0.36865 0.489993,-1.51703 -0.705929,-1.36512 -0.715165,-4.0519 -0.01852,-5.38913 0.295502,-0.56724 1.051687,-1.33201 1.680411,-1.69948 0.628724,-0.36749 1.041179,-0.50318 0.916566,-0.30155 -0.323547,0.52351 0.60679,0.79413 2.708648,0.7879 1.970852,-0.006 2.938525,-0.38996 2.553163,-1.01349 -0.727167,-1.17658 2.035717,0.48793 4.699597,2.83129 1.34385,1.18216 1.775979,1.3626 3.263194,1.3626 1.41703,0 1.71422,-0.11034 1.71422,-0.63649 0,-0.58622 1.913712,-3.94962 2.247257,-3.94962 0.08037,0 -0.158763,0.59531 -0.531409,1.32292 -0.673843,1.3157 -0.673635,1.32353 0.03803,1.43564 0.863741,0.13608 1.036264,1.82755 0.186401,1.82755 -0.654282,0 -0.682534,0.71374 -0.06185,1.56257 0.419161,0.57324 0.661791,0.59738 2.354665,0.23433 1.873553,-0.40181 1.896566,-0.39631 3.147918,0.75125 1.194367,1.09531 1.211924,1.10044 0.334273,0.0977 -1.339047,-1.52992 -1.718059,-2.41707 -1.718059,-4.02147 0,-1.62265 1.343653,-3.45352 3.191153,-4.34829 1.081945,-0.524 1.081945,-0.524 -0.08446,-0.98243 -1.644481,-0.64633 -4.524925,-2.57008 -5.623632,-3.75584 -1.205408,-1.3009 -2.786168,-4.32712 -2.7338,-5.2336 0.03158,-0.54666 0.07632,-0.57485 0.196002,-0.12348 0.136309,0.5141 0.251345,0.49275 0.95041,-0.17639 0.795332,-0.76127 0.795332,-0.76127 0.02206,-2.19845 -0.425298,-0.79044 -0.869529,-1.98107 -0.987182,-2.64583 -0.117652,-0.66476 -0.117195,-0.99227 10e-4,-0.7278 0.161101,0.36042 0.405594,0.25896 0.976223,-0.40512 0.761293,-0.885966 0.761293,-0.885966 2.338558,0.54726 0.867495,0.78828 1.539481,1.56018 1.493301,1.71534 -0.04618,0.15516 0.178301,0.18146 0.498844,0.0585 0.388371,-0.14903 0.49854,-0.0873 0.330223,0.18504 -0.170218,0.27542 -0.05518,0.33294 0.352778,0.17639 0.361388,-0.13868 0.518016,-0.091 0.38864,0.11836 -0.119901,0.19401 0.130047,0.33899 0.55949,0.32454 0.429973,-0.0145 0.738759,0.16491 0.692249,0.40215 -0.04618,0.23555 0.121744,0.34934 0.373165,0.25286 0.251421,-0.0965 1.479828,0.0656 2.729794,0.36026 3.329238,0.78471 9.409264,0.68507 12.503224,-0.20491 1.358195,-0.39068 2.811473,-0.73872 3.229508,-0.77341 0.418035,-0.0347 0.669805,-0.20912 0.559488,-0.38761 -0.110988,-0.17959 0.06981,-0.22078 0.404788,-0.0922 0.407959,0.15655 0.522996,0.099 0.352777,-0.17639 -0.167689,-0.27133 -0.05908,-0.33443 0.323159,-0.18775 0.316657,0.12151 0.684728,0.0446 0.817933,-0.17095 0.155336,-0.25134 0.0645,-0.29969 -0.253284,-0.13482 -0.272514,0.14138 -0.194282,0.0123 0.173852,-0.28697 0.368138,-0.29921 0.844388,-0.44429 1.058338,-0.32238 0.21394,0.12191 0.26771,0.0881 0.11947,-0.075 -0.14823,-0.16317 0.16927,-0.76506 0.70556,-1.33752 0.93492,-0.997976 0.89343,-0.987286 -1.00724,0.25942 -3.521576,2.30992 -6.503452,3.13299 -11.952404,3.29914 -3.565042,0.1087 -5.374496,0.002 -7.196508,-0.42412 -2.79351,-0.65342 -6.274277,-2.23904 -7.754362,-3.532386 -0.558881,-0.48838 -1.128033,-0.8188 -1.264783,-0.73429 -0.336763,0.20813 -1.27815,-1.82575 -1.548383,-3.34531 -0.12063,-0.67832 -0.124722,-1.02326 -0.0091,-0.76653 0.159866,0.35494 0.401537,0.28705 1.008729,-0.28338 0.662736,-0.62261 0.768895,-1.01275 0.6244,-2.29471 -0.571025,-5.06612 5.585485,-8.8216 15.182476,-9.26134 3.332526,-0.1527 4.619572,-0.0655 6.484539,0.43932 2.326784,0.62983 2.326784,0.62983 1.48669,1.27671 -0.840103,0.64687 -0.840103,0.64687 0.21823,0.25822 0.846377,-0.31082 1.34094,-0.2691 2.469444,0.2083 1.411112,0.59694 1.411112,0.59694 0.352778,1.49697 -1.058333,0.90002 -1.058333,0.90002 0.216937,0.15211 1.275277,-0.7479 1.275277,-0.7479 2.931537,1.02278 2.47937,2.65064 2.66652,3.32747 2.49659,9.0289 -0.0803,2.69372 -0.1546,5.056426 -0.16515,5.250456 -0.0105,0.19402 0.0803,1.25075 0.20182,2.34829 0.18827,1.69992 0.0819,2.29944 -0.71837,4.04737 -0.51666,1.12853 -1.20977,2.3568 -1.54026,2.72951 -0.71408,0.8053 -4.686419,3.75122 -5.058222,3.75122 -0.142575,0 -0.684346,0.16163 -1.203935,0.35917 -0.944711,0.35918 -0.944711,0.35918 0.241618,1.16175 2.393893,1.61952 2.738225,1.61658 0.577952,-0.005 -0.961147,-0.72144 -0.961147,-0.72144 0.540963,-1.2951 1.905149,-0.72758 1.768542,-0.74193 3.434854,0.36078 1.56037,1.03261 3.58084,3.60536 4.10632,5.22877 0.26661,0.82364 0.61742,1.10573 1.63911,1.31801 1.20859,0.2511 1.51388,0.118 4.34621,-1.89494 2.58375,-1.83626 3.14503,-2.10335 3.69647,-1.75898 0.96294,0.60137 3.84337,0.50756 4.56862,-0.14878 0.55763,-0.50465 0.71111,-0.50411 1.6975,0.006 2.10026,1.08609 2.94902,4.69232 1.68133,7.14374 -0.58905,1.13911 -0.47526,1.51899 0.45503,1.51899 0.89125,0 4.56637,3.92877 4.96043,5.30279 0.19228,0.67042 0.34959,2.1384 0.34959,3.26216 0,1.24659 0.21204,2.36684 0.54385,2.87324 0.49037,0.7484 0.48864,1.2589 -0.0176,5.19106 -0.75154,5.83725 -0.82373,6.14493 -1.32441,5.64425 -0.30661,-0.30661 -0.25853,-0.96111 0.19592,-2.66657 0.33124,-1.24312 0.60226,-2.91393 0.60226,-3.71289 0,-1.45267 0,-1.45267 -0.96085,-0.94924 -0.87681,0.45941 -1.01565,0.44025 -1.5875,-0.2191 -0.34465,-0.39738 -0.62664,-1.00504 -0.62664,-1.35033 0,-0.34529 -0.32631,-0.73137 -0.72514,-0.85795 -0.75607,-0.23997 -4.55227,-4.78712 -5.45675,-6.5362 -0.28649,-0.55401 -0.52089,-1.47843 -0.52089,-2.05428 0,-1.72499 -0.32426,-2.16304 -1.60117,-2.16304 -0.64511,0 -2.46458,-0.47625 -4.04327,-1.05833 -4.13805,-1.52575 -4.17609,-1.51504 -4.07037,1.14652 0.0482,1.21268 0.26959,2.65244 0.49205,3.19949 0.43521,1.07021 0.22434,2.56191 -0.48279,3.41511 -0.32147,0.38786 -0.37416,1.42407 -0.19734,3.88055 0.20426,2.83771 0.29988,3.21621 0.62385,2.46945 0.21044,-0.48507 0.79681,-1.81451 1.30305,-2.95432 0.50624,-1.1398 0.92044,-2.33836 0.92044,-2.66347 0,-0.77919 0.6867,-1.43777 1.49918,-1.43777 0.35889,0 1.0812,-0.21884 1.60514,-0.48631 0.86085,-0.43947 1.07705,-0.40689 2.24429,0.33814 2.02224,1.29075 2.04046,1.87441 0.27064,8.66676 -0.35424,1.35955 -1.31056,2.04371 -1.79328,1.28294 -0.15807,-0.2491 -0.28982,-1.18238 -0.29279,-2.07394 -0.004,-1.16986 -0.20237,-1.79927 -0.71312,-2.26149 -0.38925,-0.35226 -0.77236,-0.5753 -0.85137,-0.49565 -0.26859,0.27078 -2.57928,5.49092 -3.01511,6.8115 -0.28968,0.87774 -0.74396,1.43249 -1.36706,1.66939 -0.80385,0.30563 -1.04356,0.22652 -1.72931,-0.57072 -0.45734,-0.53169 -0.7961,-1.39252 -0.7961,-2.02298 0,-1.68694 -0.33448,-0.99014 -1.24788,2.59963 -1.16543,4.5803 -2.59801,5.50975 -2.63901,1.71218 -0.0148,-1.37356 -0.86544,-3.175 -1.49917,-3.175 -0.0867,0 -0.91525,1.78593 -1.841148,3.96875 -0.925901,2.18281 -1.841119,4.16718 -2.03382,4.40972 -0.921809,1.1602 -3.086196,-0.10574 -3.086196,-1.8051 0,-0.37289 -0.493878,-2.4728 -1.097506,-4.66647 -1.097509,-3.9885 -1.097509,-3.9885 -1.951552,-3.42891 -0.766191,0.50203 -0.79985,0.61948 -0.327194,1.14175 0.448676,0.49579 0.480056,1.36544 0.211479,5.86107 -0.306126,5.12417 -0.568907,6.68474 -1.381192,8.20251 -0.214552,0.40089 -0.528383,2.0502 -0.69741,3.66514 -0.291482,2.78498 -0.309731,2.83118 -0.354192,0.89672 z m -2.847344,-16.4813 c -0.35125,-1.94027 -0.35125,-1.94027 -0.189568,0 0.08892,1.06716 0.197195,3.76591 0.240605,5.99723 0.07893,4.05694 0.07893,4.05694 0.189568,0 0.06086,-2.23132 -0.04742,-4.93007 -0.240605,-5.99723 z m 11.85067,-0.97013 c 0.510082,-1.11566 1.119971,-2.74285 1.355313,-3.61598 0.363974,-1.35035 0.575754,-1.60499 1.417679,-1.70458 0.54439,-0.0644 1.35918,-0.3591 1.81064,-0.65491 0.75173,-0.49256 0.92691,-0.47527 2.08034,0.20527 0.69272,0.40871 1.31472,0.74311 1.38222,0.74311 0.16172,0 -0.86775,-3.93954 -1.16624,-4.46295 -0.29946,-0.52509 -6.95841,3.29428 -7.830324,4.49123 -0.525177,0.72095 -0.593683,1.34643 -0.431744,3.9421 0.105862,1.69685 0.251478,3.08518 0.323589,3.08518 0.07211,0 0.548449,-0.91281 1.058527,-2.02847 z m -9.134284,-15.85282 c -0.337288,-0.0883 -0.972288,-0.0915 -1.411111,-0.007 -0.438824,0.0844 -0.162864,0.15662 0.613247,0.16054 0.776111,0.004 1.135151,-0.0651 0.797864,-0.15342 z m 6.403883,-1.87428 c -0.01277,-0.34892 -0.122668,-0.28883 -0.32258,0.17639 -0.416743,0.96982 -0.416743,1.52681 0,0.88195 0.188087,-0.29105 0.333248,-0.7673 0.32258,-1.05834 z m 30.545473,-0.35278 c -1.32752,-1.3595 -2.70365,-1.82099 -3.17172,-1.06364 -0.13122,0.21233 0.16938,0.27153 0.77293,0.15223 0.80439,-0.15901 1.21329,0.0384 2.20341,1.06365 0.66865,0.69238 1.29618,1.25888 1.39451,1.25888 0.0983,0 -0.44128,-0.635 -1.19913,-1.41112 z m -28.958608,-2.91961 c 0.490333,-0.72254 0.76678,-1.31372 0.614327,-1.31372 -0.152449,0 -0.648747,0.67469 -1.102878,1.49931 -0.961581,1.74604 -0.773914,1.67476 0.488551,-0.18559 z m 5.851668,-2.0508 c 0.58579,-0.47915 0.64502,-0.59894 0.17639,-0.35674 -1.15068,0.59468 -1.78861,1.08319 -1.41111,1.08057 0.19402,-0.001 0.74965,-0.32706 1.23472,-0.72383 z m 5.1838,-0.15601 c -0.54776,-0.4819 -1.4143,-0.86388 -1.94028,-0.85531 -0.84295,0.0137 -0.79582,0.0706 0.41662,0.50278 0.7519,0.26801 1.53771,0.65792 1.74625,0.86646 0.20854,0.20854 0.46647,0.37414 0.57319,0.36801 0.10671,-0.006 -0.25139,-0.403 -0.79578,-0.88194 z m -8.04756,0.16531 c 0.571232,0.30571 0.96248,0.20757 2.01206,-0.50469 0.71661,-0.48631 1.45897,-0.8842 1.64968,-0.8842 0.19071,0 0.14912,-0.23812 -0.0924,-0.52916 -0.24154,-0.29104 -0.78552,-0.52917 -1.20885,-0.52917 -0.92735,0 -4.082813,1.93592 -4.082813,2.50487 0,0.29538 0.135971,0.2909 0.506617,-0.0167 0.370173,-0.30722 0.697597,-0.31824 1.215736,-0.0409 z m 4.80403,-2.09444 c -0.11991,-0.19403 -0.40709,-0.35035 -0.63818,-0.34738 -0.25245,0.003 -0.20894,0.1419 0.10902,0.34738 0.67773,0.43798 0.79985,0.43798 0.52916,0 z m 13.48641,-0.56592 c -0.11723,-0.11722 -0.4215,-0.12975 -0.67616,-0.0278 -0.28142,0.11261 -0.19783,0.19621 0.21313,0.21313 0.37189,0.0153 0.58025,-0.068 0.46303,-0.18528 z m -38.983337,-3.49103 c 0.68441,-1.05833 0.68441,-1.05833 -0.224938,0 -0.50014,0.58209 -0.897601,1.29646 -0.88325,1.5875 0.02321,0.47037 0.04819,0.47037 0.224938,0 0.109362,-0.29104 0.506826,-1.00541 0.88325,-1.5875 z m 4.398349,-1.49259 c -0.08944,-0.34324 -0.168508,-0.14782 -0.175698,0.43426 -0.0072,0.58208 0.06599,0.86292 0.162627,0.62408 0.09663,-0.23885 0.102514,-0.7151 0.01305,-1.05834 z m 10.162473,-6.97562 c 1.358194,-0.28516 3.660069,-1.11076 5.115278,-1.83467 1.455208,-0.72391 2.725207,-1.32372 2.822217,-1.3329 0.47762,-0.0452 1.04791,-0.61929 0.88195,-0.88783 -0.10334,-0.16721 -0.0266,-0.40373 0.17063,-0.52561 0.1972,-0.12187 0.35854,-0.36991 0.35854,-0.55121 0,-0.1813 -0.68356,0.19214 -1.51901,0.82986 -3.579226,2.73208 -8.246352,3.9141 -14.532383,3.68054 -4.845346,-0.18003 -8.50374,-1.1642 -11.271663,-3.03224 -1.859681,-1.25509 -2.33462,-1.40277 -1.482243,-0.4609 0.321536,0.35529 0.504891,0.72571 0.407454,0.82315 -0.09744,0.0974 0.02128,0.18701 0.263813,0.19905 0.786662,0.0391 4.867272,2.43097 4.601189,2.69705 -0.141986,0.14199 -0.02487,0.17697 0.260258,0.0777 0.285129,-0.0992 1.470914,0.0349 2.635081,0.29799 2.852498,0.64471 8.267668,0.65429 11.288889,0.02 z m -4.145139,-9.956826 c -0.727604,-0.0761 -1.918229,-0.0761 -2.645833,0 -0.727605,0.0761 -0.132292,0.138376 1.322916,0.138376 1.455209,0 2.050521,-0.0623 1.322917,-0.138376 z m 3.520429,-0.30893 c -0.117228,-0.11722 -0.421499,-0.12975 -0.676158,-0.0279 -0.281422,0.11262 -0.197831,0.19621 0.213138,0.21314 0.371884,0.0153 0.580245,-0.0681 0.46302,-0.18529 z m -12.077788,-0.84115 c 0.123592,-0.19998 -0.01803,-0.25912 -0.331957,-0.13865 -0.611159,0.23453 -0.722979,0.48739 -0.215533,0.48739 0.182577,0 0.42895,-0.15694 0.54749,-0.34874 z m 16.406664,-0.35682 c 0.291042,-0.18809 0.370417,-0.34197 0.176389,-0.34197 -0.194027,0 -0.590902,0.15388 -0.881944,0.34197 -0.291042,0.18809 -0.370417,0.34197 -0.176389,0.34197 0.194028,0 0.590903,-0.15388 0.881944,-0.34197 z m -15.874999,-1.25955 c 0,-0.097 -0.3175,-0.006 -0.705556,0.20122 -0.388056,0.20768 -0.705556,0.45697 -0.705556,0.55399 0,0.097 0.3175,0.006 0.705556,-0.20122 0.388056,-0.20768 0.705556,-0.45697 0.705556,-0.55399 z m 2.116666,0 c 0,-0.097 -0.3175,-0.006 -0.705555,0.20122 -0.388056,0.20768 -0.705556,0.45697 -0.705556,0.55399 0,0.097 0.3175,0.006 0.705556,-0.20122 0.388055,-0.20768 0.705555,-0.45697 0.705555,-0.55399 z m 18.383442,-1.90763 c 0.56063,-0.6748 1.01934,-1.38634 1.01934,-1.5812 0,-0.19486 -0.39158,0.22196 -0.87017,0.92627 -0.47859,0.70431 -1.43109,1.62723 -2.116666,2.05094 -1.53646,0.94959 -1.663255,1.34755 -0.149172,0.4682 0.603532,-0.35052 1.556028,-1.18942 2.116668,-1.86421 z m -9.169722,1.43277 c 2.856268,-0.87202 4.989015,-3.04045 4.926848,-5.00928 -0.06101,-1.93215 -0.169912,-2.75845 -0.341005,-2.58735 -0.0882,0.0882 -0.481069,-0.1178 -0.873048,-0.45777 -0.656011,-0.56898 -0.651277,-0.52964 0.05957,0.49466 1.186808,1.71015 1.044547,3.60058 -0.374276,4.97354 -1.929769,1.86739 -4.241289,2.68384 -7.672917,2.71013 -1.649236,0.0126 -3.474861,-0.10732 -4.056944,-0.26657 -0.69637,-0.19052 -0.93768,-0.17057 -0.705556,0.0583 0.194028,0.19132 0.749653,0.42801 1.234722,0.52596 1.367258,0.27611 6.381225,-0.008 7.802609,-0.44165 z m -10.466081,0.021 c -0.184326,-0.16624 -1.019147,-0.67696 -1.855156,-1.13493 -1.520017,-0.83267 -1.520017,-0.83267 -3.093191,0.002 -0.865246,0.45902 -1.504711,0.90303 -1.421033,0.98671 0.08368,0.0837 0.773136,-0.20525 1.532128,-0.64207 1.379984,-0.79422 1.379984,-0.79422 2.94105,0.11293 1.56845,0.91145 2.542604,1.25847 1.896202,0.67547 z m -6.890926,-0.85589 c -0.08084,-0.0549 -0.464491,-0.33272 -0.852546,-0.61736 -0.652641,-0.47872 -0.669245,-0.47124 -0.221388,0.0998 0.266293,0.33955 0.649938,0.61737 0.852546,0.61737 0.202608,0 0.302233,-0.0449 0.221388,-0.0998 z m 2.498843,-1.50579 c 0,-0.097 -0.47625,0.0699 -1.058334,0.37089 -0.582083,0.30101 -1.058333,0.62666 -1.058333,0.72368 0,0.097 0.47625,-0.0699 1.058333,-0.3709 0.582084,-0.30101 1.058334,-0.62666 1.058334,-0.72367 z m 1.374888,-1.2069 c -0.635265,-1.21878 -0.67594,-1.56659 -0.312121,-2.66897 0.500857,-1.51761 2.4682,-3.04797 4.998876,-3.88852 1.764234,-0.58599 6.813902,-0.5992 8.578634,-0.0224 0.388056,0.12682 0.149931,-0.0266 -0.529166,-0.34102 -1.984915,-0.9189 -7.397694,-0.55574 -9.743631,0.65373 -2.967609,1.52998 -4.421687,3.73003 -3.70725,5.60914 0.244341,0.64267 0.224095,1.03502 -0.06863,1.33005 -0.31927,0.32178 -0.280804,0.36733 0.166469,0.19713 0.319924,-0.12174 0.686478,-0.0518 0.814571,0.15549 0.596643,0.96539 0.453845,0.22553 -0.197749,-1.02458 z m 2.54067,-1.09576 c 1.13442,-0.89848 1.310467,-1.19965 1.019284,-1.74373 -0.39752,-0.74277 0.147031,-2.30589 0.904582,-2.59659 0.321448,-0.12335 0.290128,0.10886 -0.108323,0.80312 -0.700596,1.22072 -0.431536,1.95395 1.048025,2.85603 1.261124,0.7689 4.800864,0.98313 6.37233,0.38566 2.127826,-0.809 2.610718,-2.52431 1.108291,-3.9368 -0.810225,-0.76173 -1.224912,-0.85496 -3.792361,-0.85263 -1.585465,0.001 -3.433029,0.12883 -4.105695,0.28309 -1.520402,0.34867 -3.370742,1.4708 -4.0689,2.46756 -0.749692,1.07033 -0.683398,3.42034 0.09649,3.42034 0.08526,0 0.772089,-0.48872 1.526279,-1.08605 z m 21.384808,-1.29035 c -0.0811,-0.53624 -0.1496,-0.18124 -0.15225,0.7889 -0.002,0.97014 0.0637,1.40889 0.14743,0.97499 0.0837,-0.43389 0.0859,-1.22764 0.005,-1.76389 z m -0.56215,-1.951 c -0.34841,-0.34582 -0.38893,-0.3053 -0.19748,0.19748 0.13248,0.34792 0.32974,0.54371 0.43835,0.43509 0.10862,-0.10861 2.3e-4,-0.39327 -0.24087,-0.63257 z m -0.39655,-0.7332 c 0,-0.0669 -0.30174,-0.39478 -0.67053,-0.72853 -0.50389,-0.45602 -0.73662,-0.4999 -0.93645,-0.17656 -0.1595,0.25807 -0.11892,0.33941 0.10139,0.20325 0.20202,-0.12486 0.56349,0.009 0.80326,0.29827 0.41606,0.50133 0.70233,0.66582 0.70233,0.40357 z m -5.291666,-0.39504 c 0,-0.0902 -0.357188,-0.33707 -0.79375,-0.54863 -0.762223,-0.36937 -0.766548,-0.36286 -0.108963,0.16398 0.719759,0.57664 0.902713,0.6546 0.902713,0.38465 z m -2.109964,-1.78438 c 0.372808,-0.44921 0.350985,-0.50083 -0.133195,-0.31503 -0.318484,0.12221 -0.579064,0.36397 -0.579064,0.53724 0,0.45366 0.204213,0.38995 0.712259,-0.22221 z m -1.243923,-0.51705 c 0.123592,-0.19997 -0.01801,-0.25911 -0.331957,-0.13864 -0.611159,0.23452 -0.722979,0.48738 -0.215533,0.48738 0.182577,0 0.42895,-0.15693 0.54749,-0.34874 z m 2.128499,-1.34702 c -0.108617,-0.10861 -0.393273,-2.2e-4 -0.632576,0.24087 -0.345814,0.34841 -0.305294,0.38893 0.197485,0.19749 0.347916,-0.13248 0.543708,-0.32974 0.435091,-0.43836 z M 86.32444,164.19697 c 0.01693,-0.41097 0.10052,-0.49456 0.213134,-0.21314 0.101907,0.25466 0.08938,0.55893 -0.02783,0.67616 -0.117228,0.11722 -0.200604,-0.0911 -0.185286,-0.46302 z M 46.46055,145.49975 c 0.01693,-0.41097 0.100521,-0.49456 0.213137,-0.21314 0.101907,0.25466 0.08937,0.55893 -0.02785,0.67616 -0.117225,0.11722 -0.200604,-0.0911 -0.185287,-0.46302 z"
       id="path245" /></g></svg>
