<?xml version="1.0" encoding="UTF-8" standalone="no"?>
<svg
   id="svg2235"
   viewBox="0 0 335.00001 335"
   version="1.0"
   sodipodi:docname="flomar_kiwi_(bird).svg"
   width="335"
   height="335"
   inkscape:version="1.2 (dc2aedaf03, 2022-05-15)"
   xmlns:inkscape="http://www.inkscape.org/namespaces/inkscape"
   xmlns:sodipodi="http://sodipodi.sourceforge.net/DTD/sodipodi-0.dtd"
   xmlns="http://www.w3.org/2000/svg"
   xmlns:svg="http://www.w3.org/2000/svg"
   xmlns:rdf="http://www.w3.org/1999/02/22-rdf-syntax-ns#"
   xmlns:cc="http://creativecommons.org/ns#"
   xmlns:dc="http://purl.org/dc/elements/1.1/">
  <defs
     id="defs453" />
  <sodipodi:namedview
     id="namedview451"
     pagecolor="#ffffff"
     bordercolor="#666666"
     borderopacity="1.0"
     inkscape:showpageshadow="2"
     inkscape:pageopacity="0.0"
     inkscape:pagecheckerboard="0"
     inkscape:deskcolor="#d1d1d1"
     showgrid="false"
     inkscape:zoom="3.9524323"
     inkscape:cx="126.50438"
     inkscape:cy="49.210204"
     inkscape:window-width="1703"
     inkscape:window-height="1400"
     inkscape:window-x="3413"
     inkscape:window-y="18"
     inkscape:window-maximized="1"
     inkscape:current-layer="svg2235" />
  <g
     id="layer1"
     transform="translate(-151.63633,-32.498709)">
    <path
       id="path2233"
       d="m 261.03,177.92 c 0,0 22.43,52.36 97.23,67.31 l -6.12,38.42 c -13.93,1.53 -33.43,6.21 -31.69,24.77 4.6,-7.68 11.96,-9.35 20.13,-11.17 -0.37,4.63 -0.46,9.22 -0.12,13.84 4.38,-8.08 10.66,-13.16 17.8,-14.18 4.32,-0.61 9.5,0.55 10.71,-1.55 1.29,-2.23 -2.89,-2.96 -2.89,-5.25 0,-5.78 2.04,-28.22 11.9,-38.76 0,0 22.78,-2.38 25.84,20.06 3.06,22.44 -3.4,25.16 -6.46,26.52 -10.74,5.02 -31.41,5.3 -36.99,17.89 8.78,-2.24 17.74,-2.94 26.79,-3.27 -1.1,4.07 -2.31,8.09 -2.71,12.3 4.76,-2.38 15.29,-9.92 25.83,-10.94 4.81,-0.46 10.32,0.84 11.66,-1.47 1.02,-1.77 -5.48,-3.56 -6.22,-10.77 -1.36,-13.26 2.72,-26.52 19.04,-42.5 16.31,-15.98 40.12,-21.74 46.57,-62.41 7.16,-45.07 -1.5,-69.56 -21.82,-89.35 -20.36,-19.812 -62.49,-31.486 -86.97,-32.166 -24.48,-0.68 -40.8,2.04 -65.96,14.28 -25.16,12.236 -27.88,27.196 -47.59,25.156 -47.7,-7.05 -64.48,5.79 -68,52.02 l 0.34,21.08 c 0,0 -29.98,35.28 -34.34,84.31 -4.36,49.03 -2.57,14.41 1.5,20.51 7.04,-24.48 15.3,-67.15 45.11,-97.44 0,0 30.77,4.32 57.43,-17.24 z"
       fill-rule="evenodd" />
  </g>
  <metadata
     id="metadata448">
    <rdf:RDF>
      <cc:Work>
        <dc:format>image/svg+xml</dc:format>
        <dc:type
           rdf:resource="http://purl.org/dc/dcmitype/StillImage" />
        <cc:license
           rdf:resource="http://creativecommons.org/publicdomain/zero/1.0/" />
        <dc:publisher>
          <cc:Agent
             rdf:about="http://openclipart.org/">
            <dc:title>Openclipart</dc:title>
          </cc:Agent>
        </dc:publisher>
        <dc:title>kiwi (bird)</dc:title>
        <dc:date>2007-07-17T19:57:54</dc:date>
        <dc:description>this is the silhouette view of the animal called 'kiwi'. \n-&gt; http://en.wikipedia.org/wiki/Kiwi</dc:description>
        <dc:source>http://openclipart.org/detail/4416/kiwi-(bird)-by-flomar</dc:source>
        <dc:creator>
          <cc:Agent>
            <dc:title>flomar</dc:title>
          </cc:Agent>
        </dc:creator>
        <dc:subject>
          <rdf:Bag>
            <rdf:li>animal</rdf:li>
            <rdf:li>bird</rdf:li>
            <rdf:li>clip art</rdf:li>
            <rdf:li>clipart</rdf:li>
            <rdf:li>image</rdf:li>
            <rdf:li>kiwi</rdf:li>
            <rdf:li>media</rdf:li>
            <rdf:li>png</rdf:li>
            <rdf:li>public domain</rdf:li>
            <rdf:li>silhouette</rdf:li>
            <rdf:li>svg</rdf:li>
          </rdf:Bag>
        </dc:subject>
      </cc:Work>
      <cc:License
         rdf:about="http://creativecommons.org/publicdomain/zero/1.0/">
        <cc:permits
           rdf:resource="http://creativecommons.org/ns#Reproduction" />
        <cc:permits
           rdf:resource="http://creativecommons.org/ns#Distribution" />
        <cc:permits
           rdf:resource="http://creativecommons.org/ns#DerivativeWorks" />
      </cc:License>
    </rdf:RDF>
  </metadata>
</svg>
